{"title":"Lonavlpass [2010] Marathi Xvid 1 CD VCDRip [MDG]@Mastitorrents","uid":5874220,"size":731082274,"categoryP":"video","categoryS":"movies","magnet":"?xt=urn:btih:a533b9920f75b181ffeb048e0f3ca4833515deeb&amp;dn=Lonavlpass+%5B2010%5D+Marathi+Xvid+1+CD+VCDRip+%5BMDG%5D%40Mastitorrents&amp;tr=udp%3A%2F%2Ftracker.openbittorrent.com%3A80&amp;tr=udp%3A%2F%2Fopen.demonii.com%3A1337&amp;tr=udp%3A%2F%2Ftracker.coppersurfer.tk%3A6969&amp;tr=udp%3A%2F%2Fexodus.desync.com%3A6969","seeders":2,"leechers":5,"uploader":"amanrulz","files":1,"time":1286547959,"description":"mastitorrents.com\n &lt;a href=&quot;\nhttp://mastitorrents.com/forums/index.php&quot; rel=&quot;nofollow&quot; target=&quot;_NEW&quot;&gt;\nhttp://mastitorrents.com/forums/index.php&lt;/a&gt;\n\nInfo -\nCast -\nSanjay Narvekar\nVijay Chavan\nKishore Nandolskar\nArun Kadam,\nAshwini Apte\nSakshan Kulkarni\nAnjali Ujavan.\n\nPlot -\nThe story of the film revolves around the tragic happenings in the lives of four friends who come from a poor background and are always together during their good and bad times. Like any other human being of their type, they too dream of winning a jackpot. All of a sudden, their dream comes true and their life takes a dramatic turn. Soon thereafter, a series of unexpected things also occur and within six months time, each one of them die one after the other, under strange circumstances. What is the real cause of such happenings ? Who is behind such deaths ? All these questions may strike your mind. But, hold on; till the release of ?Lonavala By Pass?.\n\nMedia Info -\nGeneral\nName : Lonavla Bypass\nFormat : AVI\nFormat/Info : Audio Video Interleave\nFormat profile : OpenDML\nFile size : 697 MiB\nDuration : 1h 46mn\nOverall bit rate : 915 Kbps\nWriting application : AVI-Mux GUI 1.17.8.3\n\n\nVideo\nID : 0\nFormat : MPEG-4 Visual\nFormat profile : Advanced Simple@L5\nFormat settings, BVOP : Yes\nFormat settings, QPel : No\nFormat settings, GMC : No warppoints\nFormat settings, Matrix : Default (H.263)\nCodec ID : XVID\nCodec ID/Hint : XviD\nDuration : 1h 46mn\nBit rate : 848 Kbps\nWidth : 576 pixels\nHeight : 240 pixels\nDisplay aspect ratio : 2.40:1\nFrame rate : 25.000 fps\nColor space : YUV\nChroma subsampling : 4:2:0\nBit depth : 8 bits\nScan type : Progressive\nBits/(Pixel*Frame) : 0.245\nStream size : 646 MiB (93%)\nWriting library : XviD 1.2.1\n\n\nAudio\nID : 1\nFormat : MPEG Audio\nFormat version : Version 2\nFormat profile : Layer 3\nMode : Joint stereo\nMode extension : MS Stereo\nCodec ID : 55\nCodec ID/Hint : MP3\nDuration : 1h 46mn\nBit rate mode : Constant\nBit rate : 64.0 Kbps\nChannel(s) : 2 channels\nSampling rate : 24.0 KHz\nStream size : 48.7 MiB (7%)\nAlignment : Aligned on interleaves\nInterleave, duration : 870 ms (21.74 video frames)\nInterleave, preload duration : 216 ms","torrent":{"xt":"urn:btih:a533b9920f75b181ffeb048e0f3ca4833515deeb","amp;dn":"Lonavlpass+%5B2010%5D+Marathi+Xvid+1+CD+VCDRip+%5BMDG%5D%40Mastitorrents","amp;tr":["udp%3A%2F%2Ftracker.openbittorrent.com%3A80","udp%3A%2F%2Fopen.demonii.com%3A1337","udp%3A%2F%2Ftracker.coppersurfer.tk%3A6969","udp%3A%2F%2Fexodus.desync.com%3A6969"],"infoHash":"a533b9920f75b181ffeb048e0f3ca4833515deeb","infoHashBuffer":{"type":"Buffer","data":[165,51,185,146,15,117,177,129,255,235,4,142,15,60,164,131,53,21,222,235]},"announce":[],"urlList":[]}}